<svg xmlns="http://www.w3.org/2000/svg" viewBox="0 0 100 100" width="100" height="100">
  <circle cx="50" cy="50" r="46" fill="#1e140f" stroke="#D6B37A" stroke-width="2"/>
  <path d="M30 45 C30 28 40 24 50 24 C60 24 70 28 70 45 C70 60 62 68 50 68 C38 68 30 60 30 45 Z" fill="none" stroke="#D6B37A" stroke-width="3"/>
  <path d="M70 38 Q78 38 78 45 Q78 52 70 52" fill="none" stroke="#D6B37A" stroke-width="3" stroke-linecap="round"/>
  <path d="M26 72 L74 72 L74 76 C74 78 72 80 70 80 L30 80 C28 80 26 78 26 76 Z" fill="#D6B37A"/>
  <path d="M42 14 Q44 18 42 20 M50 12 Q52 16 50 18 M58 14 Q60 18 58 20" stroke="#D6B37A" stroke-width="2" stroke-linecap="round"/>
</svg>
